<?xml version="1.0" encoding="UTF-8"?>
<svg version="1.1" xmlns="http://www.w3.org/2000/svg" width="64" height="64">
<path d="M0 0 C0.66209473 -0.00095673 1.32418945 -0.00191345 2.00634766 -0.00289917 C3.40852961 -0.00358076 4.8107147 -0.00172792 6.21289062 0.00244141 C8.36595713 0.00779004 10.51881502 0.0024958 12.671875 -0.00390625 C14.03125046 -0.00324546 15.3906258 -0.00196429 16.75 0 C18.61785156 0.00169189 18.61785156 0.00169189 20.5234375 0.00341797 C23.375 0.1328125 23.375 0.1328125 24.375 1.1328125 C24.4737517 2.81536485 24.50298904 4.50205278 24.50439453 6.1875 C24.50754669 7.26531738 24.51069885 8.34313477 24.51394653 9.45361328 C24.5119223 10.62649902 24.50989807 11.79938477 24.5078125 13.0078125 C24.50876923 14.2026123 24.50972595 15.39741211 24.51071167 16.62841797 C24.51139371 19.1604823 24.50953778 21.69254838 24.50537109 24.22460938 C24.50002321 28.1159251 24.50531533 32.00712539 24.51171875 35.8984375 C24.51105797 38.35156276 24.50977682 40.80468794 24.5078125 43.2578125 C24.50983673 44.43069824 24.51186096 45.60358398 24.51394653 46.81201172 C24.50921829 48.42873779 24.50921829 48.42873779 24.50439453 50.078125 C24.50359894 51.03219238 24.50280334 51.98625977 24.50198364 52.96923828 C24.375 55.1328125 24.375 55.1328125 23.375 56.1328125 C21.16849344 56.23293651 18.95877614 56.2636243 16.75 56.265625 C16.08790527 56.26658173 15.42581055 56.26753845 14.74365234 56.26852417 C13.34147039 56.26920576 11.9392853 56.26735292 10.53710938 56.26318359 C8.38404287 56.25783496 6.23118498 56.2631292 4.078125 56.26953125 C2.71874954 56.26887046 1.3593742 56.26758929 0 56.265625 C-1.24523437 56.26449707 -2.49046875 56.26336914 -3.7734375 56.26220703 C-6.625 56.1328125 -6.625 56.1328125 -7.625 55.1328125 C-7.7237517 53.45026015 -7.75298904 51.76357222 -7.75439453 50.078125 C-7.75754669 49.00030762 -7.76069885 47.92249023 -7.76394653 46.81201172 C-7.7619223 45.63912598 -7.75989807 44.46624023 -7.7578125 43.2578125 C-7.75876923 42.0630127 -7.75972595 40.86821289 -7.76071167 39.63720703 C-7.76139371 37.1051427 -7.75953778 34.57307662 -7.75537109 32.04101562 C-7.75002321 28.1496999 -7.75531533 24.25849961 -7.76171875 20.3671875 C-7.76105797 17.91406224 -7.75977682 15.46093706 -7.7578125 13.0078125 C-7.75983673 11.83492676 -7.76186096 10.66204102 -7.76394653 9.45361328 C-7.76079437 8.3757959 -7.75764221 7.29797852 -7.75439453 6.1875 C-7.75359894 5.23343262 -7.75280334 4.27936523 -7.75198364 3.29638672 C-7.48026622 -1.33319235 -3.86680257 0.00350254 0 0 Z " fill="#222222" transform="translate(23.625,3.8671875)"/>
<path d="M0 0 C3 0.125 3 0.125 4 1.125 C4.0987517 2.80755235 4.12798904 4.49424028 4.12939453 6.1796875 C4.13254669 7.25750488 4.13569885 8.33532227 4.13894653 9.44580078 C4.1369223 10.61868652 4.13489807 11.79157227 4.1328125 13 C4.13376923 14.1947998 4.13472595 15.38959961 4.13571167 16.62060547 C4.13639371 19.1526698 4.13453778 21.68473588 4.13037109 24.21679688 C4.12502321 28.1081126 4.13031533 31.99931289 4.13671875 35.890625 C4.13605797 38.34375026 4.13477682 40.79687544 4.1328125 43.25 C4.13483673 44.42288574 4.13686096 45.59577148 4.13894653 46.80419922 C4.13579437 47.8820166 4.13264221 48.95983398 4.12939453 50.0703125 C4.12859894 51.02437988 4.12780334 51.97844727 4.12698364 52.96142578 C4 55.125 4 55.125 3 56.125 C0 56.25 0 56.25 -3 56.125 C-4.68012342 54.44487658 -4.12747339 52.37412808 -4.12939453 50.0703125 C-4.13254669 48.99249512 -4.13569885 47.91467773 -4.13894653 46.80419922 C-4.1369223 45.63131348 -4.13489807 44.45842773 -4.1328125 43.25 C-4.13376923 42.0552002 -4.13472595 40.86040039 -4.13571167 39.62939453 C-4.13639371 37.0973302 -4.13453778 34.56526412 -4.13037109 32.03320312 C-4.12502321 28.1418874 -4.13031533 24.25068711 -4.13671875 20.359375 C-4.13605797 17.90624974 -4.13477682 15.45312456 -4.1328125 13 C-4.13483673 11.82711426 -4.13686096 10.65422852 -4.13894653 9.44580078 C-4.13579437 8.3679834 -4.13264221 7.29016602 -4.12939453 6.1796875 C-4.12859894 5.22562012 -4.12780334 4.27155273 -4.12698364 3.28857422 C-3.92747753 -0.11065317 -3.47279774 0.14469991 0 0 Z " fill="#222222" transform="translate(56,3.875)"/>
<path d="M0 0 C3 0.125 3 0.125 4 1.125 C4.09946453 2.89359193 4.13080217 4.66611451 4.1328125 6.4375 C4.13474609 8.05011719 4.13474609 8.05011719 4.13671875 9.6953125 C4.13285156 10.82710937 4.12898437 11.95890625 4.125 13.125 C4.12886719 14.25679687 4.13273438 15.38859375 4.13671875 16.5546875 C4.13542969 17.62976563 4.13414063 18.70484375 4.1328125 19.8125 C4.13168457 20.80636719 4.13055664 21.80023438 4.12939453 22.82421875 C4 25.125 4 25.125 3 26.125 C0 26.25 0 26.25 -3 26.125 C-4.71567792 24.40932208 -4.13015825 22.15127265 -4.1328125 19.8125 C-4.13410156 18.73742187 -4.13539062 17.66234375 -4.13671875 16.5546875 C-4.13091797 14.85699219 -4.13091797 14.85699219 -4.125 13.125 C-4.12886719 11.99320313 -4.13273438 10.86140625 -4.13671875 9.6953125 C-4.13542969 8.62023437 -4.13414063 7.54515625 -4.1328125 6.4375 C-4.13168457 5.44363281 -4.13055664 4.44976562 -4.12939453 3.42578125 C-3.93238902 -0.07719979 -3.57529116 0.14897047 0 0 Z " fill="#222222" transform="translate(8,33.875)"/>
<path d="M0 0 C3 0.125 3 0.125 4 1.125 C4.09946453 2.89359193 4.13080217 4.66611451 4.1328125 6.4375 C4.13474609 8.05011719 4.13474609 8.05011719 4.13671875 9.6953125 C4.13285156 10.82710937 4.12898437 11.95890625 4.125 13.125 C4.12886719 14.25679687 4.13273438 15.38859375 4.13671875 16.5546875 C4.13542969 17.62976563 4.13414063 18.70484375 4.1328125 19.8125 C4.13168457 20.80636719 4.13055664 21.80023437 4.12939453 22.82421875 C4 25.125 4 25.125 3 26.125 C0 26.25 0 26.25 -3 26.125 C-4.71567792 24.40932208 -4.13015825 22.15127265 -4.1328125 19.8125 C-4.13410156 18.73742187 -4.13539062 17.66234375 -4.13671875 16.5546875 C-4.13091797 14.85699219 -4.13091797 14.85699219 -4.125 13.125 C-4.12886719 11.99320313 -4.13273438 10.86140625 -4.13671875 9.6953125 C-4.13542969 8.62023437 -4.13414063 7.54515625 -4.1328125 6.4375 C-4.13168457 5.44363281 -4.13055664 4.44976562 -4.12939453 3.42578125 C-3.93238902 -0.07719979 -3.57529116 0.14897047 0 0 Z " fill="#222222" transform="translate(8,3.875)"/>
</svg>
