<?xml version="1.0" encoding="UTF-8"?>
<svg version="1.1" xmlns="http://www.w3.org/2000/svg" width="64" height="64">
<path d="M0 0 C0.73541016 0.00202423 1.47082031 0.00404846 2.22851562 0.00613403 C2.97939453 0.00517731 3.73027344 0.00422058 4.50390625 0.00323486 C6.09440189 0.00255315 7.6849003 0.00440682 9.27539062 0.00857544 C11.71816217 0.01392386 14.16074984 0.00863019 16.60351562 0.00222778 C18.1451827 0.00288857 19.68684966 0.00416973 21.22851562 0.00613403 C21.96392578 0.0041098 22.69933594 0.00208557 23.45703125 0 C28.61356402 0.02399493 28.61356402 0.02399493 29.72851562 1.13894653 C29.82938774 3.64818807 29.86823595 6.12931037 29.86132812 8.63894653 C29.86228485 9.38982544 29.86324158 10.14070435 29.86422729 10.91433716 C29.86490901 12.5048328 29.86305534 14.09533121 29.85888672 15.68582153 C29.85353829 18.12859308 29.85883196 20.57118075 29.86523438 23.01394653 C29.86457359 24.55561361 29.86329243 26.09728057 29.86132812 27.63894653 C29.86335236 28.37435669 29.86537659 29.10976685 29.86746216 29.86746216 C29.84346723 35.02399493 29.84346723 35.02399493 28.72851562 36.13894653 C26.21927409 36.23981865 23.73815179 36.27866686 21.22851562 36.27175903 C20.47763672 36.27271576 19.72675781 36.27367249 18.953125 36.2746582 C17.36262936 36.27533991 15.77213095 36.27348625 14.18164062 36.26931763 C11.73886908 36.2639692 9.29628141 36.26926287 6.85351562 36.27566528 C5.31184855 36.2750045 3.77018159 36.27372333 2.22851562 36.27175903 C1.49310547 36.27378326 0.75769531 36.2758075 0 36.27789307 C-5.15653277 36.25389814 -5.15653277 36.25389814 -6.27148438 35.13894653 C-6.37235649 32.629705 -6.4112047 30.14858269 -6.40429688 27.63894653 C-6.4052536 26.88806763 -6.40621033 26.13718872 -6.40719604 25.36355591 C-6.40787776 23.77306027 -6.40602409 22.18256186 -6.40185547 20.59207153 C-6.39650704 18.14929999 -6.40180071 15.70671232 -6.40820312 13.26394653 C-6.40754234 11.72227946 -6.40626118 10.1806125 -6.40429688 8.63894653 C-6.40632111 7.90353638 -6.40834534 7.16812622 -6.41043091 6.41043091 C-6.38192715 0.28494684 -6.12548407 0.02850375 0 0 Z " fill="#222222" transform="translate(30.271484375,23.861053466796875)"/>
<path d="M0 0 C0.73541016 0.00202423 1.47082031 0.00404846 2.22851562 0.00613403 C2.97939453 0.00517731 3.73027344 0.00422058 4.50390625 0.00323486 C6.09440189 0.00255315 7.6849003 0.00440682 9.27539062 0.00857544 C11.71816217 0.01392386 14.16074984 0.00863019 16.60351562 0.00222778 C18.1451827 0.00288857 19.68684966 0.00416973 21.22851562 0.00613403 C21.96392578 0.0041098 22.69933594 0.00208557 23.45703125 0 C28.61356402 0.02399493 28.61356402 0.02399493 29.72851562 1.13894653 C29.72851562 2.78894653 29.72851562 4.43894653 29.72851562 6.13894653 C20.15851562 6.46894653 10.58851562 6.79894653 0.72851562 7.13894653 C0.39851563 16.70894653 0.06851562 26.27894653 -0.27148438 36.13894653 C-1.92148437 36.13894653 -3.57148438 36.13894653 -5.27148438 36.13894653 C-7.00441417 34.40601674 -6.39968484 32.17680317 -6.41043091 29.86746216 C-6.40840668 29.132052 -6.40638245 28.39664185 -6.40429688 27.63894653 C-6.4052536 26.88806763 -6.40621033 26.13718872 -6.40719604 25.36355591 C-6.40787776 23.77306027 -6.40602409 22.18256186 -6.40185547 20.59207153 C-6.39650704 18.14929999 -6.40180071 15.70671232 -6.40820312 13.26394653 C-6.40754234 11.72227946 -6.40626118 10.1806125 -6.40429688 8.63894653 C-6.40632111 7.90353638 -6.40834534 7.16812622 -6.41043091 6.41043091 C-6.38192715 0.28494684 -6.12548407 0.02850375 0 0 Z " fill="#222222" transform="translate(20.271484375,13.861053466796875)"/>
<path d="M0 0 C0.73541016 0.00202423 1.47082031 0.00404846 2.22851562 0.00613403 C2.97939453 0.00517731 3.73027344 0.00422058 4.50390625 0.00323486 C6.09440189 0.00255315 7.6849003 0.00440682 9.27539062 0.00857544 C11.71816217 0.01392386 14.16074984 0.00863019 16.60351562 0.00222778 C18.1451827 0.00288857 19.68684966 0.00416973 21.22851562 0.00613403 C21.96392578 0.0041098 22.69933594 0.00208557 23.45703125 0 C28.61356402 0.02399493 28.61356402 0.02399493 29.72851562 1.13894653 C29.72851562 2.78894653 29.72851562 4.43894653 29.72851562 6.13894653 C20.15851562 6.46894653 10.58851562 6.79894653 0.72851562 7.13894653 C0.39851562 16.70894653 0.06851562 26.27894653 -0.27148438 36.13894653 C-1.92148438 36.13894653 -3.57148438 36.13894653 -5.27148438 36.13894653 C-7.00441417 34.40601674 -6.39968484 32.17680317 -6.41043091 29.86746216 C-6.40840668 29.132052 -6.40638245 28.39664185 -6.40429688 27.63894653 C-6.4052536 26.88806763 -6.40621033 26.13718872 -6.40719604 25.36355591 C-6.40787776 23.77306027 -6.40602409 22.18256186 -6.40185547 20.59207153 C-6.39650704 18.14929999 -6.40180071 15.70671232 -6.40820312 13.26394653 C-6.40754234 11.72227946 -6.40626118 10.1806125 -6.40429688 8.63894653 C-6.40632111 7.90353638 -6.40834534 7.16812622 -6.41043091 6.41043091 C-6.38192715 0.28494684 -6.12548407 0.02850375 0 0 Z " fill="#222222" transform="translate(10.271484375,3.861053466796875)"/>
</svg>
