<?xml version="1.0" encoding="UTF-8"?>
<svg version="1.1" xmlns="http://www.w3.org/2000/svg" width="64" height="64">
<path d="M0 0 C0.804375 -0.00128906 1.60875 -0.00257812 2.4375 -0.00390625 C3.283125 -0.00003906 4.12875 0.00382812 5 0.0078125 C6.2684375 0.00201172 6.2684375 0.00201172 7.5625 -0.00390625 C8.366875 -0.00261719 9.17125 -0.00132813 10 0 C10.7425 0.00112793 11.485 0.00225586 12.25 0.00341797 C14 0.1328125 14 0.1328125 15 1.1328125 C15.09959621 2.97440273 15.13080411 4.81978217 15.1328125 6.6640625 C15.13474609 8.34435547 15.13474609 8.34435547 15.13671875 10.05859375 C15.13285156 11.23808594 15.12898438 12.41757812 15.125 13.6328125 C15.13080078 15.40205078 15.13080078 15.40205078 15.13671875 17.20703125 C15.13542969 18.32722656 15.13414063 19.44742188 15.1328125 20.6015625 C15.13168457 21.63732422 15.13055664 22.67308594 15.12939453 23.74023438 C15 26.1328125 15 26.1328125 14 27.1328125 C12.66956375 27.2311846 11.33406656 27.26359842 10 27.265625 C9.195625 27.26691406 8.39125 27.26820312 7.5625 27.26953125 C6.716875 27.26566406 5.87125 27.26179688 5 27.2578125 C4.154375 27.26167969 3.30875 27.26554687 2.4375 27.26953125 C1.633125 27.26824219 0.82875 27.26695313 0 27.265625 C-0.7425 27.26449707 -1.485 27.26336914 -2.25 27.26220703 C-4 27.1328125 -4 27.1328125 -5 26.1328125 C-5.09959621 24.29122227 -5.13080411 22.44584283 -5.1328125 20.6015625 C-5.13410156 19.48136719 -5.13539062 18.36117187 -5.13671875 17.20703125 C-5.13285156 16.02753906 -5.12898437 14.84804688 -5.125 13.6328125 C-5.12886719 12.45332031 -5.13273438 11.27382813 -5.13671875 10.05859375 C-5.13542969 8.93839844 -5.13414063 7.81820312 -5.1328125 6.6640625 C-5.13168457 5.62830078 -5.13055664 4.59253906 -5.12939453 3.52539062 C-4.91620388 -0.4166251 -3.54265583 0.00538164 0 0 Z " fill="#222222" transform="translate(9,32.8671875)"/>
<path d="M0 0 C1.29349365 0.00523682 2.5869873 0.01047363 3.91967773 0.01586914 C4.9496714 0.01799156 4.9496714 0.01799156 6.00047302 0.02015686 C8.20144949 0.0257706 10.40232557 0.03832532 12.60327148 0.05102539 C14.09220231 0.05603863 15.58113473 0.06060184 17.07006836 0.06469727 C20.72700223 0.07574446 24.38387707 0.09301826 28.04077148 0.11352539 C28.06762244 2.5927634 28.08753696 5.07171379 28.10327148 7.55102539 C28.11165039 8.25807617 28.1200293 8.96512695 28.12866211 9.69360352 C28.13730736 11.50046098 28.0929716 13.30740142 28.04077148 15.11352539 C26.1575788 16.99671807 22.92147011 16.24406824 20.41577148 16.24633789 C19.75367676 16.24729462 19.09158203 16.24825134 18.40942383 16.24923706 C17.00724187 16.24991865 15.60505678 16.24806581 14.20288086 16.24389648 C12.04981435 16.23854785 9.89695646 16.24384209 7.74389648 16.25024414 C6.38452102 16.24958336 5.02514569 16.24830218 3.66577148 16.24633789 C2.42053711 16.24520996 1.17530273 16.24408203 -0.10766602 16.24291992 C-2.95922852 16.11352539 -2.95922852 16.11352539 -3.95922852 15.11352539 C-4.05832154 12.78192484 -4.08893356 10.44722598 -4.08422852 8.11352539 C-4.08680664 6.83477539 -4.08938477 5.55602539 -4.09204102 4.23852539 C-3.91829221 0.15031812 -3.91829221 0.15031812 0 0 Z " fill="#222222" transform="translate(31.959228515625,3.886474609375)"/>
<path d="M0 0 C1.093125 0.00257812 2.18625 0.00515625 3.3125 0.0078125 C4.405625 0.00523438 5.49875 0.00265625 6.625 0 C9.3125 0.1328125 9.3125 0.1328125 10.3125 1.1328125 C10.41337212 3.64205403 10.45222032 6.12317634 10.4453125 8.6328125 C10.44626923 9.38369141 10.44722595 10.13457031 10.44821167 10.90820312 C10.44889338 12.49869877 10.44703972 14.08919717 10.44287109 15.6796875 C10.43752267 18.12245905 10.44281634 20.56504671 10.44921875 23.0078125 C10.44855797 24.54947957 10.4472768 26.09114653 10.4453125 27.6328125 C10.44733673 28.36822266 10.44936096 29.10363281 10.45144653 29.86132812 C10.42745161 35.01786089 10.42745161 35.01786089 9.3125 36.1328125 C7.31450428 36.23155066 5.31292842 36.26253049 3.3125 36.2578125 C2.219375 36.26039062 1.12625 36.26296875 0 36.265625 C-2.6875 36.1328125 -2.6875 36.1328125 -3.6875 35.1328125 C-3.78837212 32.62357097 -3.82722032 30.14244866 -3.8203125 27.6328125 C-3.82126923 26.88193359 -3.82222595 26.13105469 -3.82321167 25.35742188 C-3.82389338 23.76692623 -3.82203972 22.17642783 -3.81787109 20.5859375 C-3.81252267 18.14316595 -3.81781634 15.70057829 -3.82421875 13.2578125 C-3.82355797 11.71614543 -3.8222768 10.17447847 -3.8203125 8.6328125 C-3.82233673 7.89740234 -3.82436096 7.16199219 -3.82644653 6.40429688 C-3.79751865 0.18766807 -3.79751865 0.18766807 0 0 Z " fill="#222222" transform="translate(49.6875,23.8671875)"/>
<path d="M0 0 C1.093125 0.00257812 2.18625 0.00515625 3.3125 0.0078125 C4.405625 0.00523438 5.49875 0.00265625 6.625 0 C9.3125 0.1328125 9.3125 0.1328125 10.3125 1.1328125 C10.41337212 3.64205403 10.45222032 6.12317634 10.4453125 8.6328125 C10.44626923 9.38369141 10.44722595 10.13457031 10.44821167 10.90820312 C10.44889338 12.49869877 10.44703972 14.08919717 10.44287109 15.6796875 C10.43752267 18.12245905 10.44281634 20.56504671 10.44921875 23.0078125 C10.44855797 24.54947957 10.4472768 26.09114653 10.4453125 27.6328125 C10.44733673 28.36822266 10.44936096 29.10363281 10.45144653 29.86132812 C10.42745161 35.01786089 10.42745161 35.01786089 9.3125 36.1328125 C7.31450428 36.23155066 5.31292842 36.26253049 3.3125 36.2578125 C2.219375 36.26039062 1.12625 36.26296875 0 36.265625 C-2.6875 36.1328125 -2.6875 36.1328125 -3.6875 35.1328125 C-3.78837212 32.62357097 -3.82722032 30.14244866 -3.8203125 27.6328125 C-3.82126923 26.88193359 -3.82222595 26.13105469 -3.82321167 25.35742188 C-3.82389338 23.76692623 -3.82203972 22.17642783 -3.81787109 20.5859375 C-3.81252267 18.14316595 -3.81781634 15.70057829 -3.82421875 13.2578125 C-3.82355797 11.71614543 -3.8222768 10.17447847 -3.8203125 8.6328125 C-3.82233673 7.89740234 -3.82436096 7.16199219 -3.82644653 6.40429688 C-3.79751865 0.18766807 -3.79751865 0.18766807 0 0 Z " fill="#222222" transform="translate(31.6875,23.8671875)"/>
<path d="M0 0 C0.804375 -0.00128906 1.60875 -0.00257812 2.4375 -0.00390625 C3.283125 -0.00003906 4.12875 0.00382813 5 0.0078125 C6.2684375 0.00201172 6.2684375 0.00201172 7.5625 -0.00390625 C8.366875 -0.00261719 9.17125 -0.00132813 10 0 C10.7425 0.00112793 11.485 0.00225586 12.25 0.00341797 C14 0.1328125 14 0.1328125 15 1.1328125 C15.09932153 2.82839976 15.13080007 4.52806997 15.1328125 6.2265625 C15.13474609 7.77150391 15.13474609 7.77150391 15.13671875 9.34765625 C15.13285156 10.43175781 15.12898438 11.51585937 15.125 12.6328125 C15.13080078 14.25896484 15.13080078 14.25896484 15.13671875 15.91796875 C15.13542969 16.94792969 15.13414063 17.97789063 15.1328125 19.0390625 C15.13168457 19.99103516 15.13055664 20.94300781 15.12939453 21.92382812 C15 24.1328125 15 24.1328125 14 25.1328125 C12.66956375 25.2311846 11.33406656 25.26359842 10 25.265625 C9.195625 25.26691406 8.39125 25.26820312 7.5625 25.26953125 C6.716875 25.26566406 5.87125 25.26179688 5 25.2578125 C4.154375 25.26167969 3.30875 25.26554687 2.4375 25.26953125 C1.633125 25.26824219 0.82875 25.26695313 0 25.265625 C-0.7425 25.26449707 -1.485 25.26336914 -2.25 25.26220703 C-4 25.1328125 -4 25.1328125 -5 24.1328125 C-5.09932153 22.43722524 -5.13080007 20.73755503 -5.1328125 19.0390625 C-5.13474609 17.49412109 -5.13474609 17.49412109 -5.13671875 15.91796875 C-5.13285156 14.83386719 -5.12898437 13.74976563 -5.125 12.6328125 C-5.12886719 11.54871094 -5.13273438 10.46460938 -5.13671875 9.34765625 C-5.13542969 8.31769531 -5.13414063 7.28773437 -5.1328125 6.2265625 C-5.13168457 5.27458984 -5.13055664 4.32261719 -5.12939453 3.34179688 C-4.90723543 -0.45083631 -3.38044758 0.00513523 0 0 Z " fill="#222222" transform="translate(9,3.8671875)"/>
</svg>
