<?xml version="1.0" encoding="UTF-8"?>
<svg version="1.1" xmlns="http://www.w3.org/2000/svg" width="64" height="64">
<path d="M0 0 C1.61672607 -0.00472824 1.61672607 -0.00472824 3.26611328 -0.009552 C4.43899902 -0.00752777 5.61188477 -0.00550354 6.8203125 -0.00341797 C8.0151123 -0.00437469 9.20991211 -0.00533142 10.44091797 -0.00631714 C12.9729823 -0.00699918 15.50504838 -0.00514325 18.03710938 -0.00097656 C21.9284251 0.00437132 25.81962539 -0.00092079 29.7109375 -0.00732422 C32.16406276 -0.00666344 34.61718794 -0.00538229 37.0703125 -0.00341797 C38.24319824 -0.0054422 39.41608398 -0.00746643 40.62451172 -0.009552 C41.7023291 -0.00639984 42.78014648 -0.00324768 43.890625 0 C44.84469238 0.00079559 45.79875977 0.00159119 46.78173828 0.00241089 C48.9453125 0.12939453 48.9453125 0.12939453 49.9453125 1.12939453 C50.04440552 3.46099508 50.07501754 5.79569395 50.0703125 8.12939453 C50.07417969 10.04751953 50.07417969 10.04751953 50.078125 12.00439453 C49.9453125 15.12939453 49.9453125 15.12939453 48.9453125 16.12939453 C47.26276015 16.22814623 45.57607222 16.25738357 43.890625 16.25878906 C42.27389893 16.2635173 42.27389893 16.2635173 40.62451172 16.26834106 C39.45162598 16.26631683 38.27874023 16.2642926 37.0703125 16.26220703 C35.8755127 16.26316376 34.68071289 16.26412048 33.44970703 16.2651062 C30.9176427 16.26578824 28.38557662 16.26393231 25.85351562 16.25976562 C21.9621999 16.25441774 18.07099961 16.25970986 14.1796875 16.26611328 C11.72656224 16.2654525 9.27343706 16.26417135 6.8203125 16.26220703 C5.64742676 16.26423126 4.47454102 16.26625549 3.26611328 16.26834106 C2.1882959 16.2651889 1.11047852 16.26203674 0 16.25878906 C-0.95406738 16.25799347 -1.90813477 16.25719788 -2.89111328 16.25637817 C-5.0546875 16.12939453 -5.0546875 16.12939453 -6.0546875 15.12939453 C-6.15378052 12.79779398 -6.18439254 10.46309512 -6.1796875 8.12939453 C-6.18226562 6.85064453 -6.18484375 5.57189453 -6.1875 4.25439453 C-5.97557556 -0.73206276 -4.52976458 0.00377735 0 0 Z " fill="#222222" transform="translate(10.0546875,43.87060546875)"/>
<path d="M0 0 C1.61672607 -0.00472824 1.61672607 -0.00472824 3.26611328 -0.009552 C4.43899902 -0.00752777 5.61188477 -0.00550354 6.8203125 -0.00341797 C8.0151123 -0.00437469 9.20991211 -0.00533142 10.44091797 -0.00631714 C12.9729823 -0.00699918 15.50504838 -0.00514325 18.03710938 -0.00097656 C21.9284251 0.00437132 25.81962539 -0.00092079 29.7109375 -0.00732422 C32.16406276 -0.00666344 34.61718794 -0.00538229 37.0703125 -0.00341797 C38.24319824 -0.0054422 39.41608398 -0.00746643 40.62451172 -0.009552 C41.7023291 -0.00639984 42.78014648 -0.00324768 43.890625 0 C44.84469238 0.00079559 45.79875977 0.00159119 46.78173828 0.00241089 C48.9453125 0.12939453 48.9453125 0.12939453 49.9453125 1.12939453 C50.04440552 3.46099508 50.07501754 5.79569395 50.0703125 8.12939453 C50.07417969 10.04751953 50.07417969 10.04751953 50.078125 12.00439453 C49.9453125 15.12939453 49.9453125 15.12939453 48.9453125 16.12939453 C47.26276015 16.22814623 45.57607222 16.25738357 43.890625 16.25878906 C42.27389893 16.2635173 42.27389893 16.2635173 40.62451172 16.26834106 C39.45162598 16.26631683 38.27874023 16.2642926 37.0703125 16.26220703 C35.8755127 16.26316376 34.68071289 16.26412048 33.44970703 16.2651062 C30.9176427 16.26578824 28.38557662 16.26393231 25.85351562 16.25976562 C21.9621999 16.25441774 18.07099961 16.25970986 14.1796875 16.26611328 C11.72656224 16.2654525 9.27343706 16.26417135 6.8203125 16.26220703 C5.64742676 16.26423126 4.47454102 16.26625549 3.26611328 16.26834106 C2.1882959 16.2651889 1.11047852 16.26203674 0 16.25878906 C-0.95406738 16.25799347 -1.90813477 16.25719788 -2.89111328 16.25637817 C-5.0546875 16.12939453 -5.0546875 16.12939453 -6.0546875 15.12939453 C-6.15378052 12.79779398 -6.18439254 10.46309512 -6.1796875 8.12939453 C-6.18226562 6.85064453 -6.18484375 5.57189453 -6.1875 4.25439453 C-5.97557556 -0.73206276 -4.52976458 0.00377735 0 0 Z " fill="#222222" transform="translate(10.0546875,23.87060546875)"/>
<path d="M0 0 C1.61672607 -0.00472824 1.61672607 -0.00472824 3.26611328 -0.009552 C4.43899902 -0.00752777 5.61188477 -0.00550354 6.8203125 -0.00341797 C8.0151123 -0.00437469 9.20991211 -0.00533142 10.44091797 -0.00631714 C12.9729823 -0.00699918 15.50504838 -0.00514325 18.03710938 -0.00097656 C21.9284251 0.00437132 25.81962539 -0.00092079 29.7109375 -0.00732422 C32.16406276 -0.00666344 34.61718794 -0.00538229 37.0703125 -0.00341797 C38.24319824 -0.0054422 39.41608398 -0.00746643 40.62451172 -0.009552 C41.7023291 -0.00639984 42.78014648 -0.00324768 43.890625 0 C44.84469238 0.00079559 45.79875977 0.00159119 46.78173828 0.00241089 C48.9453125 0.12939453 48.9453125 0.12939453 49.9453125 1.12939453 C50.04440552 3.46099508 50.07501754 5.79569395 50.0703125 8.12939453 C50.07417969 10.04751953 50.07417969 10.04751953 50.078125 12.00439453 C49.9453125 15.12939453 49.9453125 15.12939453 48.9453125 16.12939453 C47.26276015 16.22814623 45.57607222 16.25738357 43.890625 16.25878906 C42.27389893 16.2635173 42.27389893 16.2635173 40.62451172 16.26834106 C39.45162598 16.26631683 38.27874023 16.2642926 37.0703125 16.26220703 C35.8755127 16.26316376 34.68071289 16.26412048 33.44970703 16.2651062 C30.9176427 16.26578824 28.38557662 16.26393231 25.85351562 16.25976562 C21.9621999 16.25441774 18.07099961 16.25970986 14.1796875 16.26611328 C11.72656224 16.2654525 9.27343706 16.26417135 6.8203125 16.26220703 C5.64742676 16.26423126 4.47454102 16.26625549 3.26611328 16.26834106 C2.1882959 16.2651889 1.11047852 16.26203674 0 16.25878906 C-0.95406738 16.25799347 -1.90813477 16.25719788 -2.89111328 16.25637817 C-5.0546875 16.12939453 -5.0546875 16.12939453 -6.0546875 15.12939453 C-6.15378052 12.79779398 -6.18439254 10.46309512 -6.1796875 8.12939453 C-6.18226562 6.85064453 -6.18484375 5.57189453 -6.1875 4.25439453 C-5.97557556 -0.73206276 -4.52976458 0.00377735 0 0 Z " fill="#222222" transform="translate(10.0546875,3.87060546875)"/>
</svg>
