<?xml version="1.0" encoding="UTF-8"?>
<svg version="1.1" xmlns="http://www.w3.org/2000/svg" width="64" height="64">
<path d="M0 0 C1.1653125 -0.00128906 2.330625 -0.00257812 3.53125 -0.00390625 C4.7584375 -0.00003906 5.985625 0.00382813 7.25 0.0078125 C9.09078125 0.00201172 9.09078125 0.00201172 10.96875 -0.00390625 C12.71671875 -0.00197266 12.71671875 -0.00197266 14.5 0 C15.57765625 0.00112793 16.6553125 0.00225586 17.765625 0.00341797 C20.25 0.1328125 20.25 0.1328125 21.25 1.1328125 C21.3487517 2.81536485 21.37798904 4.50205278 21.37939453 6.1875 C21.38254669 7.26531738 21.38569885 8.34313477 21.38894653 9.45361328 C21.3869223 10.62649902 21.38489807 11.79938477 21.3828125 13.0078125 C21.38424759 14.80001221 21.38424759 14.80001221 21.38571167 16.62841797 C21.38639371 19.1604823 21.38453778 21.69254838 21.38037109 24.22460938 C21.37502321 28.1159251 21.38031533 32.00712539 21.38671875 35.8984375 C21.38605797 38.35156276 21.38477682 40.80468794 21.3828125 43.2578125 C21.38483673 44.43069824 21.38686096 45.60358398 21.38894653 46.81201172 C21.38579437 47.8898291 21.38264221 48.96764648 21.37939453 50.078125 C21.37859894 51.03219238 21.37780334 51.98625977 21.37698364 52.96923828 C21.25 55.1328125 21.25 55.1328125 20.25 56.1328125 C18.33541718 56.23253036 16.41717683 56.26361839 14.5 56.265625 C13.3346875 56.26691406 12.169375 56.26820312 10.96875 56.26953125 C9.7415625 56.26566406 8.514375 56.26179688 7.25 56.2578125 C5.40921875 56.26361328 5.40921875 56.26361328 3.53125 56.26953125 C2.3659375 56.26824219 1.200625 56.26695313 0 56.265625 C-1.07765625 56.26449707 -2.1553125 56.26336914 -3.265625 56.26220703 C-5.75 56.1328125 -5.75 56.1328125 -6.75 55.1328125 C-6.8487517 53.45026015 -6.87798904 51.76357222 -6.87939453 50.078125 C-6.88254669 49.00030762 -6.88569885 47.92249023 -6.88894653 46.81201172 C-6.8869223 45.63912598 -6.88489807 44.46624023 -6.8828125 43.2578125 C-6.88376923 42.0630127 -6.88472595 40.86821289 -6.88571167 39.63720703 C-6.88639371 37.1051427 -6.88453778 34.57307662 -6.88037109 32.04101562 C-6.87502321 28.1496999 -6.88031533 24.25849961 -6.88671875 20.3671875 C-6.88605797 17.91406224 -6.88477682 15.46093706 -6.8828125 13.0078125 C-6.88483673 11.83492676 -6.88686096 10.66204102 -6.88894653 9.45361328 C-6.88579437 8.3757959 -6.88264221 7.29797852 -6.87939453 6.1875 C-6.87859894 5.23343262 -6.87780334 4.27936523 -6.87698364 3.29638672 C-6.62044713 -1.07453673 -3.737255 0.0039116 0 0 Z " fill="#222222" transform="translate(10.75,3.8671875)"/>
<path d="M0 0 C0.98484375 -0.00128906 1.9696875 -0.00257812 2.984375 -0.00390625 C4.02078125 -0.00003906 5.0571875 0.00382813 6.125 0.0078125 C7.67960937 0.00201172 7.67960937 0.00201172 9.265625 -0.00390625 C10.25046875 -0.00261719 11.2353125 -0.00132813 12.25 0 C13.16007812 0.00112793 14.07015625 0.00225586 15.0078125 0.00341797 C17.125 0.1328125 17.125 0.1328125 18.125 1.1328125 C18.22313987 2.57021603 18.2529828 4.01237577 18.25439453 5.453125 C18.25754669 6.37077637 18.26069885 7.28842773 18.26394653 8.23388672 C18.2619223 9.23178223 18.25989807 10.22967773 18.2578125 11.2578125 C18.25924759 12.78365967 18.25924759 12.78365967 18.26071167 14.34033203 C18.26139361 16.49576886 18.25953835 18.65120772 18.25537109 20.80664062 C18.25002305 24.11853621 18.25531563 27.43029617 18.26171875 30.7421875 C18.26105797 32.83072947 18.25977681 34.91927135 18.2578125 37.0078125 C18.25983673 38.00570801 18.26186096 39.00360352 18.26394653 40.03173828 C18.26079437 40.94938965 18.25764221 41.86704102 18.25439453 42.8125 C18.25359894 43.62444824 18.25280334 44.43639648 18.25198364 45.27294922 C18.125 47.1328125 18.125 47.1328125 17.125 48.1328125 C15.50242456 48.2319782 13.87560169 48.26361027 12.25 48.265625 C11.26515625 48.26691406 10.2803125 48.26820312 9.265625 48.26953125 C8.22921875 48.26566406 7.1928125 48.26179688 6.125 48.2578125 C4.57039063 48.26361328 4.57039063 48.26361328 2.984375 48.26953125 C1.99953125 48.26824219 1.0146875 48.26695313 0 48.265625 C-0.91007812 48.26449707 -1.82015625 48.26336914 -2.7578125 48.26220703 C-4.875 48.1328125 -4.875 48.1328125 -5.875 47.1328125 C-5.97313987 45.69540897 -6.0029828 44.25324923 -6.00439453 42.8125 C-6.00754669 41.89484863 -6.01069885 40.97719727 -6.01394653 40.03173828 C-6.0119223 39.03384277 -6.00989807 38.03594727 -6.0078125 37.0078125 C-6.00876923 35.99058105 -6.00972595 34.97334961 -6.01071167 33.92529297 C-6.01139361 31.76985614 -6.00953835 29.61441728 -6.00537109 27.45898438 C-6.00002305 24.14708879 -6.00531563 20.83532883 -6.01171875 17.5234375 C-6.01105797 15.43489553 -6.00977681 13.34635365 -6.0078125 11.2578125 C-6.00983673 10.25991699 -6.01186096 9.26202148 -6.01394653 8.23388672 C-6.01079437 7.31623535 -6.00764221 6.39858398 -6.00439453 5.453125 C-6.00359894 4.64117676 -6.00280334 3.82922852 -6.00198364 2.99267578 C-5.74164549 -0.82036159 -3.24297235 0.00401926 0 0 Z " fill="#222222" transform="translate(41.875,11.8671875)"/>
<path d="M0 0 C7.26 0 14.52 0 22 0 C22 1.32 22 2.64 22 4 C14.74 4 7.48 4 0 4 C0 2.68 0 1.36 0 0 Z " fill="#222222" transform="translate(37,4)"/>
</svg>
