<?xml version="1.0" encoding="UTF-8"?>
<svg version="1.1" xmlns="http://www.w3.org/2000/svg" width="64" height="64">
<path d="M0 0 C1.27875 0.00257812 2.5575 0.00515625 3.875 0.0078125 C5.15375 0.00523438 6.4325 0.00265625 7.75 0 C10.875 0.1328125 10.875 0.1328125 11.875 1.1328125 C11.9737517 2.81536485 12.00298904 4.50205278 12.00439453 6.1875 C12.00754669 7.26531738 12.01069885 8.34313477 12.01394653 9.45361328 C12.0119223 10.62649902 12.00989807 11.79938477 12.0078125 13.0078125 C12.00924759 14.80001221 12.00924759 14.80001221 12.01071167 16.62841797 C12.01139371 19.1604823 12.00953778 21.69254838 12.00537109 24.22460938 C12.00002321 28.1159251 12.00531533 32.00712539 12.01171875 35.8984375 C12.01105797 38.35156276 12.00977682 40.80468794 12.0078125 43.2578125 C12.00983673 44.43069824 12.01186096 45.60358398 12.01394653 46.81201172 C12.01079437 47.8898291 12.00764221 48.96764648 12.00439453 50.078125 C12.00359894 51.03219238 12.00280334 51.98625977 12.00198364 52.96923828 C11.875 55.1328125 11.875 55.1328125 10.875 56.1328125 C8.54339945 56.23190552 6.20870058 56.26251754 3.875 56.2578125 C2.59625 56.26039062 1.3175 56.26296875 0 56.265625 C-3.125 56.1328125 -3.125 56.1328125 -4.125 55.1328125 C-4.2237517 53.45026015 -4.25298904 51.76357222 -4.25439453 50.078125 C-4.25754669 49.00030762 -4.26069885 47.92249023 -4.26394653 46.81201172 C-4.2619223 45.63912598 -4.25989807 44.46624023 -4.2578125 43.2578125 C-4.25876923 42.0630127 -4.25972595 40.86821289 -4.26071167 39.63720703 C-4.26139371 37.1051427 -4.25953778 34.57307662 -4.25537109 32.04101562 C-4.25002321 28.1496999 -4.25531533 24.25849961 -4.26171875 20.3671875 C-4.26105797 17.91406224 -4.25977682 15.46093706 -4.2578125 13.0078125 C-4.25983673 11.83492676 -4.26186096 10.66204102 -4.26394653 9.45361328 C-4.26079437 8.3757959 -4.25764221 7.29797852 -4.25439453 6.1875 C-4.25359894 5.23343262 -4.25280334 4.27936523 -4.25198364 3.29638672 C-4.04887707 -0.16418617 -3.55143965 0.15093619 0 0 Z " fill="#222222" transform="translate(48.125,3.8671875)"/>
<path d="M0 0 C1.27875 0.00257812 2.5575 0.00515625 3.875 0.0078125 C5.15375 0.00523438 6.4325 0.00265625 7.75 0 C10.875 0.1328125 10.875 0.1328125 11.875 1.1328125 C11.9737517 2.81536485 12.00298904 4.50205278 12.00439453 6.1875 C12.00754669 7.26531738 12.01069885 8.34313477 12.01394653 9.45361328 C12.0119223 10.62649902 12.00989807 11.79938477 12.0078125 13.0078125 C12.00924759 14.80001221 12.00924759 14.80001221 12.01071167 16.62841797 C12.01139371 19.1604823 12.00953778 21.69254838 12.00537109 24.22460938 C12.00002321 28.1159251 12.00531533 32.00712539 12.01171875 35.8984375 C12.01105797 38.35156276 12.00977682 40.80468794 12.0078125 43.2578125 C12.00983673 44.43069824 12.01186096 45.60358398 12.01394653 46.81201172 C12.01079437 47.8898291 12.00764221 48.96764648 12.00439453 50.078125 C12.00359894 51.03219238 12.00280334 51.98625977 12.00198364 52.96923828 C11.875 55.1328125 11.875 55.1328125 10.875 56.1328125 C8.54339945 56.23190552 6.20870058 56.26251754 3.875 56.2578125 C2.59625 56.26039062 1.3175 56.26296875 0 56.265625 C-3.125 56.1328125 -3.125 56.1328125 -4.125 55.1328125 C-4.2237517 53.45026015 -4.25298904 51.76357222 -4.25439453 50.078125 C-4.25754669 49.00030762 -4.26069885 47.92249023 -4.26394653 46.81201172 C-4.2619223 45.63912598 -4.25989807 44.46624023 -4.2578125 43.2578125 C-4.25876923 42.0630127 -4.25972595 40.86821289 -4.26071167 39.63720703 C-4.26139371 37.1051427 -4.25953778 34.57307662 -4.25537109 32.04101562 C-4.25002321 28.1496999 -4.25531533 24.25849961 -4.26171875 20.3671875 C-4.26105797 17.91406224 -4.25977682 15.46093706 -4.2578125 13.0078125 C-4.25983673 11.83492676 -4.26186096 10.66204102 -4.26394653 9.45361328 C-4.26079437 8.3757959 -4.25764221 7.29797852 -4.25439453 6.1875 C-4.25359894 5.23343262 -4.25280334 4.27936523 -4.25198364 3.29638672 C-4.04887707 -0.16418617 -3.55143965 0.15093619 0 0 Z " fill="#222222" transform="translate(28.125,3.8671875)"/>
<path d="M0 0 C1.27875 0.00257812 2.5575 0.00515625 3.875 0.0078125 C5.15375 0.00523438 6.4325 0.00265625 7.75 0 C10.875 0.1328125 10.875 0.1328125 11.875 1.1328125 C11.9737517 2.81536485 12.00298904 4.50205278 12.00439453 6.1875 C12.00754669 7.26531738 12.01069885 8.34313477 12.01394653 9.45361328 C12.0119223 10.62649902 12.00989807 11.79938477 12.0078125 13.0078125 C12.00924759 14.80001221 12.00924759 14.80001221 12.01071167 16.62841797 C12.01139371 19.1604823 12.00953778 21.69254838 12.00537109 24.22460938 C12.00002321 28.1159251 12.00531533 32.00712539 12.01171875 35.8984375 C12.01105797 38.35156276 12.00977682 40.80468794 12.0078125 43.2578125 C12.00983673 44.43069824 12.01186096 45.60358398 12.01394653 46.81201172 C12.01079437 47.8898291 12.00764221 48.96764648 12.00439453 50.078125 C12.00359894 51.03219238 12.00280334 51.98625977 12.00198364 52.96923828 C11.875 55.1328125 11.875 55.1328125 10.875 56.1328125 C8.54339945 56.23190552 6.20870058 56.26251754 3.875 56.2578125 C2.59625 56.26039062 1.3175 56.26296875 0 56.265625 C-3.125 56.1328125 -3.125 56.1328125 -4.125 55.1328125 C-4.2237517 53.45026015 -4.25298904 51.76357222 -4.25439453 50.078125 C-4.25754669 49.00030762 -4.26069885 47.92249023 -4.26394653 46.81201172 C-4.2619223 45.63912598 -4.25989807 44.46624023 -4.2578125 43.2578125 C-4.25876923 42.0630127 -4.25972595 40.86821289 -4.26071167 39.63720703 C-4.26139371 37.1051427 -4.25953778 34.57307662 -4.25537109 32.04101562 C-4.25002321 28.1496999 -4.25531533 24.25849961 -4.26171875 20.3671875 C-4.26105797 17.91406224 -4.25977682 15.46093706 -4.2578125 13.0078125 C-4.25983673 11.83492676 -4.26186096 10.66204102 -4.26394653 9.45361328 C-4.26079437 8.3757959 -4.25764221 7.29797852 -4.25439453 6.1875 C-4.25359894 5.23343262 -4.25280334 4.27936523 -4.25198364 3.29638672 C-4.04887707 -0.16418617 -3.55143965 0.15093619 0 0 Z " fill="#222222" transform="translate(8.125,3.8671875)"/>
</svg>
